<mxfile host="app.diagrams.net" agent="Mozilla/5.0 (Windows NT 10.0; Win64; x64) AppleWebKit/537.36 (KHTML, like Gecko) Chrome/131.0.0.0 Safari/537.36" version="25.0.3">
  <diagram name="Page-1" id="e7e014a7-5840-1c2e-5031-d8a46d1fe8dd">
    <mxGraphModel dx="1615" dy="815" grid="1" gridSize="10" guides="1" tooltips="1" connect="1" arrows="1" fold="1" page="1" pageScale="1" pageWidth="1169" pageHeight="826" background="none" math="0" shadow="0">
      <root>
        <mxCell id="0" />
        <mxCell id="1" parent="0" />
        <mxCell id="2" value="User" style="swimlane;whiteSpace=wrap;aspect=fixed;" parent="1" vertex="1">
          <mxGeometry x="160" y="128" width="380" height="700" as="geometry" />
        </mxCell>
        <mxCell id="5" value="" style="ellipse;shape=startState;fillColor=#000000;strokeColor=#ff0000;" parent="2" vertex="1">
          <mxGeometry x="100" y="40" width="30" height="30" as="geometry" />
        </mxCell>
        <mxCell id="6" value="" style="edgeStyle=elbowEdgeStyle;elbow=horizontal;verticalAlign=bottom;endArrow=open;endSize=8;strokeColor=#000000;endFill=1;rounded=0" parent="2" source="5" edge="1">
          <mxGeometry x="100" y="40" as="geometry">
            <mxPoint x="115" y="102" as="targetPoint" />
          </mxGeometry>
        </mxCell>
        <mxCell id="9" value="" style="endArrow=open;strokeColor=#000000;endFill=1;rounded=0" parent="2" edge="1">
          <mxGeometry relative="1" as="geometry">
            <mxPoint x="115.14285714285711" y="142" as="sourcePoint" />
            <mxPoint x="115.5" y="192" as="targetPoint" />
          </mxGeometry>
        </mxCell>
        <mxCell id="tD_DrnIzGh9cRPsZDn5A-84" value="Public tin nhắn &#39;tat&#39;&amp;nbsp;&lt;br style=&quot;padding: 0px; margin: 0px;&quot;&gt;đến MQTT Broker&lt;div style=&quot;padding: 0px; margin: 0px;&quot;&gt;&lt;br style=&quot;padding: 0px; margin: 0px; font-size: 12px; text-wrap-mode: nowrap; background-color: rgb(251, 251, 251);&quot;&gt;&lt;/div&gt;" style="rounded=1;whiteSpace=wrap;html=1;fontFamily=Helvetica;fontSize=11;fontColor=default;labelBackgroundColor=default;" vertex="1" parent="2">
          <mxGeometry x="50" y="192" width="120" height="60" as="geometry" />
        </mxCell>
        <mxCell id="tD_DrnIzGh9cRPsZDn5A-85" value="&lt;span style=&quot;font-size: 12px; text-wrap-mode: nowrap; background-color: rgb(251, 251, 251);&quot;&gt;Tắt switch&lt;/span&gt;" style="rounded=1;whiteSpace=wrap;html=1;fontFamily=Helvetica;fontSize=11;fontColor=default;labelBackgroundColor=default;" vertex="1" parent="2">
          <mxGeometry x="50" y="102" width="120" height="48" as="geometry" />
        </mxCell>
        <mxCell id="tD_DrnIzGh9cRPsZDn5A-90" value="" style="edgeStyle=orthogonalEdgeStyle;shape=connector;rounded=0;orthogonalLoop=1;jettySize=auto;html=1;strokeColor=default;align=center;verticalAlign=middle;fontFamily=Helvetica;fontSize=11;fontColor=default;labelBackgroundColor=default;endArrow=open;endFill=0;" edge="1" parent="2" source="tD_DrnIzGh9cRPsZDn5A-86" target="tD_DrnIzGh9cRPsZDn5A-89">
          <mxGeometry relative="1" as="geometry" />
        </mxCell>
        <mxCell id="tD_DrnIzGh9cRPsZDn5A-86" value="&lt;span style=&quot;font-size: 12px; text-wrap-mode: nowrap; background-color: rgb(251, 251, 251);&quot;&gt;Switch chuyển sang&lt;/span&gt;&lt;br style=&quot;padding: 0px; margin: 0px; font-size: 12px; text-wrap-mode: nowrap; background-color: rgb(251, 251, 251);&quot;&gt;&lt;span style=&quot;font-size: 12px; text-wrap-mode: nowrap; background-color: rgb(251, 251, 251);&quot;&gt;trạng thái disable&amp;nbsp;&lt;/span&gt;" style="rounded=1;whiteSpace=wrap;html=1;fontFamily=Helvetica;fontSize=11;fontColor=default;labelBackgroundColor=default;" vertex="1" parent="2">
          <mxGeometry x="50" y="272" width="120" height="60" as="geometry" />
        </mxCell>
        <mxCell id="tD_DrnIzGh9cRPsZDn5A-68" style="edgeStyle=orthogonalEdgeStyle;rounded=0;orthogonalLoop=1;jettySize=auto;html=1;exitX=0.5;exitY=1;exitDx=0;exitDy=0;" edge="1" parent="2">
          <mxGeometry relative="1" as="geometry">
            <mxPoint x="110" y="508" as="sourcePoint" />
            <mxPoint x="110" y="508" as="targetPoint" />
          </mxGeometry>
        </mxCell>
        <mxCell id="tD_DrnIzGh9cRPsZDn5A-92" value="" style="edgeStyle=orthogonalEdgeStyle;shape=connector;rounded=0;orthogonalLoop=1;jettySize=auto;html=1;strokeColor=default;align=center;verticalAlign=middle;fontFamily=Helvetica;fontSize=11;fontColor=default;labelBackgroundColor=default;endArrow=open;endFill=0;" edge="1" parent="2" source="tD_DrnIzGh9cRPsZDn5A-89" target="tD_DrnIzGh9cRPsZDn5A-91">
          <mxGeometry relative="1" as="geometry" />
        </mxCell>
        <mxCell id="tD_DrnIzGh9cRPsZDn5A-89" value="&lt;span style=&quot;font-size: 12px; background-color: rgb(251, 251, 251);&quot;&gt;Bật switch&lt;/span&gt;" style="whiteSpace=wrap;html=1;fontSize=11;rounded=1;labelBackgroundColor=default;" vertex="1" parent="2">
          <mxGeometry x="50" y="382" width="120" height="48" as="geometry" />
        </mxCell>
        <mxCell id="tD_DrnIzGh9cRPsZDn5A-91" value="Public tin nhắn &#39;bat&#39;&amp;nbsp;&lt;br style=&quot;padding: 0px; margin: 0px;&quot;&gt;đến MQTT Broker&lt;div style=&quot;padding: 0px; margin: 0px;&quot;&gt;&lt;br style=&quot;font-size: 12px; text-wrap-mode: nowrap; background-color: rgb(251, 251, 251); padding: 0px; margin: 0px;&quot;&gt;&lt;/div&gt;" style="whiteSpace=wrap;html=1;fontSize=11;rounded=1;labelBackgroundColor=default;" vertex="1" parent="2">
          <mxGeometry x="50" y="472" width="120" height="60" as="geometry" />
        </mxCell>
        <mxCell id="tD_DrnIzGh9cRPsZDn5A-101" value="" style="edgeStyle=orthogonalEdgeStyle;shape=connector;rounded=0;orthogonalLoop=1;jettySize=auto;html=1;strokeColor=default;align=center;verticalAlign=middle;fontFamily=Helvetica;fontSize=11;fontColor=default;labelBackgroundColor=default;endArrow=open;endFill=0;" edge="1" parent="2" source="tD_DrnIzGh9cRPsZDn5A-99" target="tD_DrnIzGh9cRPsZDn5A-100">
          <mxGeometry relative="1" as="geometry" />
        </mxCell>
        <mxCell id="tD_DrnIzGh9cRPsZDn5A-99" value="Switch chuyển sang trạng thái enabled" style="rounded=1;whiteSpace=wrap;html=1;fontFamily=Helvetica;fontSize=11;fontColor=default;labelBackgroundColor=default;" vertex="1" parent="2">
          <mxGeometry x="50" y="562" width="120" height="60" as="geometry" />
        </mxCell>
        <mxCell id="tD_DrnIzGh9cRPsZDn5A-100" value="" style="ellipse;shape=startState;fillColor=#000000;strokeColor=#ff0000;" vertex="1" parent="2">
          <mxGeometry x="95" y="662" width="30" height="30" as="geometry" />
        </mxCell>
        <mxCell id="3" value="System" style="swimlane;whiteSpace=wrap;aspect=fixed;" parent="1" vertex="1">
          <mxGeometry x="540" y="128" width="343.86" height="700" as="geometry" />
        </mxCell>
        <mxCell id="tD_DrnIzGh9cRPsZDn5A-74" value="" style="edgeStyle=orthogonalEdgeStyle;rounded=0;orthogonalLoop=1;jettySize=auto;html=1;endArrow=open;endFill=0;" edge="1" parent="3">
          <mxGeometry relative="1" as="geometry">
            <mxPoint x="161.0999999999999" y="242" as="sourcePoint" />
            <mxPoint x="161.0999999999999" y="272" as="targetPoint" />
          </mxGeometry>
        </mxCell>
        <mxCell id="tD_DrnIzGh9cRPsZDn5A-96" value="" style="edgeStyle=orthogonalEdgeStyle;shape=connector;rounded=0;orthogonalLoop=1;jettySize=auto;html=1;strokeColor=default;align=center;verticalAlign=middle;fontFamily=Helvetica;fontSize=11;fontColor=default;labelBackgroundColor=default;endArrow=open;endFill=0;" edge="1" parent="3" source="tD_DrnIzGh9cRPsZDn5A-93" target="tD_DrnIzGh9cRPsZDn5A-95">
          <mxGeometry relative="1" as="geometry" />
        </mxCell>
        <mxCell id="tD_DrnIzGh9cRPsZDn5A-93" value="&lt;div style=&quot;padding: 0px; margin: 0px;&quot;&gt;&lt;span style=&quot;font-size: 12px; text-align: left; background-color: rgb(251, 251, 251);&quot;&gt;Subcribe tin nhắn &#39;bat&#39; tu MQTT Broker&lt;/span&gt;&lt;/div&gt;" style="whiteSpace=wrap;html=1;fontSize=11;rounded=1;labelBackgroundColor=default;" vertex="1" parent="3">
          <mxGeometry x="101.14" y="472" width="120" height="60" as="geometry" />
        </mxCell>
        <mxCell id="tD_DrnIzGh9cRPsZDn5A-95" value="&lt;span style=&quot;font-size: 12px; background-color: rgb(251, 251, 251);&quot;&gt;Nối mạch hoạt động của thiết bị&lt;/span&gt;" style="whiteSpace=wrap;html=1;fontSize=11;rounded=1;labelBackgroundColor=default;" vertex="1" parent="3">
          <mxGeometry x="101.13999999999999" y="572" width="120" height="60" as="geometry" />
        </mxCell>
        <mxCell id="tD_DrnIzGh9cRPsZDn5A-97" value="&lt;span style=&quot;font-size: 12px; text-align: left; background-color: rgb(251, 251, 251);&quot;&gt;Subcribe tin nhắn &#39;tat&#39; tu MQTT Broker&lt;/span&gt;" style="rounded=1;whiteSpace=wrap;html=1;fontFamily=Helvetica;fontSize=11;fontColor=default;labelBackgroundColor=default;" vertex="1" parent="3">
          <mxGeometry x="111.93000000000006" y="182" width="120" height="60" as="geometry" />
        </mxCell>
        <mxCell id="tD_DrnIzGh9cRPsZDn5A-98" value="&lt;span style=&quot;font-size: 12px; text-align: left; background-color: rgb(251, 251, 251);&quot;&gt;Ngắt mạch hoạt động của thiết bị&lt;/span&gt;" style="rounded=1;whiteSpace=wrap;html=1;fontFamily=Helvetica;fontSize=11;fontColor=default;labelBackgroundColor=default;" vertex="1" parent="3">
          <mxGeometry x="101.13999999999999" y="272" width="120" height="60" as="geometry" />
        </mxCell>
        <mxCell id="tD_DrnIzGh9cRPsZDn5A-72" value="" style="edgeStyle=orthogonalEdgeStyle;rounded=0;orthogonalLoop=1;jettySize=auto;html=1;exitX=1;exitY=0.5;exitDx=0;exitDy=0;endArrow=open;endFill=0;" edge="1" parent="1">
          <mxGeometry relative="1" as="geometry">
            <mxPoint x="330" y="345" as="sourcePoint" />
            <mxPoint x="646" y="345" as="targetPoint" />
          </mxGeometry>
        </mxCell>
        <mxCell id="tD_DrnIzGh9cRPsZDn5A-76" value="" style="edgeStyle=orthogonalEdgeStyle;rounded=0;orthogonalLoop=1;jettySize=auto;html=1;entryX=1;entryY=0.5;entryDx=0;entryDy=0;endArrow=open;endFill=0;" edge="1" parent="1">
          <mxGeometry relative="1" as="geometry">
            <mxPoint x="641.1399999999999" y="424" as="sourcePoint" />
            <mxPoint x="330" y="425" as="targetPoint" />
            <Array as="points">
              <mxPoint x="470" y="424" />
              <mxPoint x="470" y="425" />
            </Array>
          </mxGeometry>
        </mxCell>
        <mxCell id="tD_DrnIzGh9cRPsZDn5A-94" value="" style="edgeStyle=orthogonalEdgeStyle;shape=connector;rounded=0;orthogonalLoop=1;jettySize=auto;html=1;strokeColor=default;align=center;verticalAlign=middle;fontFamily=Helvetica;fontSize=11;fontColor=default;labelBackgroundColor=default;endArrow=open;endFill=0;" edge="1" parent="1" source="tD_DrnIzGh9cRPsZDn5A-91" target="tD_DrnIzGh9cRPsZDn5A-93">
          <mxGeometry relative="1" as="geometry" />
        </mxCell>
      </root>
    </mxGraphModel>
  </diagram>
</mxfile>
